<svg xmlns="http://www.w3.org/2000/svg" xml:space="preserve" viewBox="0 0 548 548"><path d="M486 196h-13v-65c0-2-1-5-3-7L365 4a10 10 0 0 0-3-3l-2-1H97C85 0 75 10 75 22v174H62c-17 0-31 14-31 31v160c0 17 14 30 31 30h13v110c0 12 10 21 22 21h355c11 0 21-9 21-21V417h13c17 0 31-13 31-30V227c0-17-14-31-31-31zM97 22h249v110c0 5 5 10 11 10h95v54H97V22zm162 291c-27-9-44-24-44-47 0-28 22-49 60-49 18 0 32 4 41 9l-8 29c-6-3-18-8-33-8-16 0-24 7-24 16 0 10 9 14 30 22 28 11 42 26 42 48 0 27-21 50-65 50-18 0-37-5-46-10l8-30c10 5 25 10 40 10 17 0 26-7 26-17s-8-16-27-23zM69 303c0-55 40-86 88-86 19 0 33 4 40 8l-8 28c-7-3-17-6-30-6-29 0-51 18-51 54 0 32 19 52 51 52 11 0 23-2 30-5l6 28c-7 3-22 7-41 7-56 0-85-35-85-80zm383 218H97V417h355v104zm-24-140h-43l-51-161h39l20 68 14 57h1c4-19 9-38 15-56l20-69h39l-54 161z"/></svg>